PathFileType	4	(X/Y/Z)	26_1_23_p0_0-490.trc
DataRate	CameraRate	NumFrames	NumMarkers	Units	OrigDataRate	OrigDataStartFrame	OrigNumFrames
59.0	59.0	5	27	m	59.0	429	491
Frame#	Time	RHip			RKnee			RAnkle			RBigToe			RSmallToe			RHeel			LHip			LKnee			LAnkle			LBigToe			LSmallToe			LHeel			Neck			Head			Nose			RShoulder			RElbow			RWrist			RThumb			RIndex			RPinky			LShoulder			LElbow			LWrist			LThumb			LIndex			LPinky			
		X1	Y1	Z1	X2	Y2	Z2	X3	Y3	Z3	X4	Y4	Z4	X5	Y5	Z5	X6	Y6	Z6	X7	Y7	Z7	X8	Y8	Z8	X9	Y9	Z9	X10	Y10	Z10	X11	Y11	Z11	X12	Y12	Z12	X13	Y13	Z13	X14	Y14	Z14	X15	Y15	Z15	X16	Y16	Z16	X17	Y17	Z17	X18	Y18	Z18	X19	Y19	Z19	X20	Y20	Z20	X21	Y21	Z21	X22	Y22	Z22	X23	Y23	Z23	X24	Y24	Z24	X25	Y25	Z25	X26	Y26	Z26	X27	Y27	Z27	
429	7.271186440677966	0.30647932199682537	0.7438527366269323	0.803212139928898	0.29636333500350504	0.9738857627454686	1.225010772539131	0.2803608640099065	1.2138564595193344	1.646595353299299	0.2345446994942493	0.9985766154454132	1.7112904378860674	0.2877406624834645	1.0236640500840595	1.7071428593898754	0.2561736859396734	1.3132931346208456	1.6879483526040617	0.0728864657739955	0.7741657353584576	0.7956130023397552	0.08144557395318057	0.9764236750491205	1.2148249448619135	0.0704940535232126	1.179845602553886	1.6269839919920088	0.079931233649481	1.0467252254209118	1.7011593142818893	0.030029798290003157	1.0595395942640984	1.684100322142565	0.09080720764410127	1.2665403489675864	1.6660040026558052	0.19157637410685913	0.5102416919704598	0.31507163531832544	0.20209051101470127	0.34884668480562664	0.10618611463880878	0.1716108739540819	0.3296462547460508	0.25294333815345676	0.353185227577928	0.518181620999493	0.40884806583056443	0.44085429820778294	0.6369974664743276	0.6533216684124102	0.41430255203746214	0.6056609458712818	0.8779371254634809	0.3377148788093889	0.5690992588048631	0.984770302133022	0.3577562855522937	0.6109287867875985	1.0177527666341448	0.3950342960510361	0.6369968188241787	1.0102001989256821	0.015778134946902164	0.5230235324647247	0.4120746927197718	-0.050502278141144184	0.7235794862414818	0.6134404981383419	0.00046463103060322836	0.681722681607964	0.860250717322388	0.07349330384096044	0.6525666081196351	0.947613400734833	0.06271671404973304	0.6619322030350848	0.9851016651547627	0.0038554539523135947	0.7333965758379436	0.9710710164215887
430	7.288135593220339	0.30642536651667435	0.7436933952982222	0.8067837365994691	0.29625127288146796	0.9741259869754317	1.2251950507284426	0.27490372310516104	1.1993219052825868	1.6485307164588991	0.23386512451072178	0.9956256812369007	1.7075398943843583	0.28803778635154753	1.0246547614996164	1.7072724013775948	0.2560871845421388	1.313113377300558	1.6883657643223922	0.07225362663111501	0.7757231267467724	0.8027731609328741	0.08045858472789909	0.9784896687788565	1.2187745728774628	0.07028510527710954	1.180173221024469	1.622801952643097	0.07983849389589387	1.046851875028423	1.7011997346892649	0.030671405744220927	1.0639717588767281	1.6889372676419274	0.09090505119858225	1.2661446005034185	1.6659134084002236	0.19150290151800747	0.5104085890021199	0.31502083264881414	0.20206236844374895	0.3489127748357178	0.106181000453985	0.17159058218213105	0.32974471174386966	0.2529293116709885	0.3570769334785967	0.519388257375038	0.40850283470405957	0.43751313288173127	0.6487740007307252	0.6473222536154053	0.4191860205325	0.6174659985017755	0.8805078121526362	0.3453161933782184	0.5671717285189478	0.9928235750115233	0.36617542269236514	0.5976728153171028	1.0177287709716545	0.40124727793104625	0.6347208394037636	1.0090919850946167	0.015705081762059744	0.5223841083045281	0.40856649052994615	-0.045833971903503835	0.7110609852658213	0.6153397008423621	-0.003644613878812091	0.6833299114046377	0.864606557447054	0.06733997269247333	0.6555655421653043	0.9514694030105145	0.058465951501645665	0.664139877047149	0.9948459689589357	0.000570561425051976	0.7337435678583815	0.9783904452225246
431	7.305084745762712	0.3030545688928581	0.7589125675275442	0.8049324183286733	0.2964922933710156	0.9742576279403455	1.2252627837594587	0.2784146853449976	1.2119185816140035	1.6459629894156846	0.2381919217147808	1.00955048420528	1.7097755160813468	0.2875918612207132	1.0276644846573533	1.711688839255672	0.25511385492679967	1.3087173592068844	1.682840109662359	0.07288815414057162	0.7741488983071878	0.7993264523593367	0.08143088011361677	0.9767223634908293	1.2149069924814209	0.07123083636599374	1.1847318631806718	1.6278968223658883	0.07986515900987512	1.0470994767909376	1.7013366809644412	0.03413982361899791	1.080531006653176	1.6916460983718467	0.09077386648984746	1.2653111912811366	1.6659004744749624	0.19153154886249713	0.5105727332655398	0.31491666398423973	0.2020453865552323	0.34898255650776167	0.10618389842155448	0.17150105052219874	0.32970328609064053	0.25295928131278583	0.35699508517910683	0.5195290700158065	0.4084219359608741	0.43260947826449286	0.6370032618229894	0.6493643787318247	0.4244696511256292	0.6277490378754381	0.8756242393127734	0.3546633458836792	0.5786950729164548	0.9879368523219813	0.3760390164643739	0.596406864499037	1.0125843146901514	0.4020747794913399	0.6338209784559943	1.0058984888850468	0.015701866446849646	0.5224940831265916	0.40836691451308865	-0.04115102361760546	0.6967301895498794	0.614198589812619	-0.007293840024013625	0.6668050196931866	0.8623642891663235	0.0578545490333064	0.6380973835233392	0.9506248708857479	0.04121586860330945	0.6552999913684837	0.9864993160801384	-0.01159781749489153	0.69878870966363	0.9695123000911131
432	7.322033898305085	0.2996205653922864	0.7620422644595255	0.812104407533512	0.3009834621371602	0.9755615065853303	1.2251103993334145	0.27933854138274705	1.2096158403851625	1.6371419497104425	0.23823571393765022	1.010643690843269	1.7055529403825005	0.28789686053869357	1.0293917311510088	1.7076895181913934	0.25510418039018273	1.3086080150524095	1.6833342734366081	0.07286786423116634	0.7743536306621381	0.7993028869696006	0.08150438496845162	0.9759957209588671	1.2153041482676028	0.07144803233338988	1.1840901726399913	1.6320252546166178	0.07668052672826203	1.062309412798592	1.7003855903837002	0.027097644532141568	1.078595729961784	1.6874522426447869	0.09091459334222765	1.263955723903548	1.6657438590332014	0.19143321601708158	0.509909714349144	0.31162362979039293	0.2020055985320923	0.3488979533879167	0.1062942441789373	0.17156559945987263	0.32973609082050986	0.25296518085398506	0.3525068981770138	0.5162407656463436	0.40555150164405446	0.42972231302416897	0.6515729019108913	0.6426139076932655	0.42916969634274027	0.6389372640197801	0.8706905183921397	0.37051271553415155	0.5793613241337856	0.9878068412498356	0.39520480032910543	0.5950366275998867	1.0162809220830236	0.4051178017372609	0.6211348117324078	1.0065099490324947	0.02277103738024962	0.53259651213174	0.3978806108137882	-0.040881768696683404	0.6965647115909152	0.6142832216321911	-0.007573360754371089	0.6663374593825232	0.8623804756428516	0.04973861242387382	0.6299137913596962	0.9626119366279664	0.03491377005046418	0.6477191702003585	0.9995777441933017	-0.018079344467460824	0.6733216129663073	0.9745203748863456
433	7.338983050847458	0.3035385648461409	0.7618386352327212	0.8081288251733217	0.30085319728042254	0.9751150772651697	1.2246356706059738	0.28306366270630323	1.1896707326382083	1.63868294833646	0.23533077309246855	0.9946889873513479	1.6986768370030576	0.28881135353995785	1.027445416428904	1.7033604830544111	0.25508102565312923	1.3086006557674672	1.6832128320539888	0.06892781800357917	0.7739461385789718	0.7993003903090818	0.0812896815870527	0.9760321612743237	1.2110558419469166	0.0725892377527416	1.1818437048734851	1.6274500621058603	0.07676242416746142	1.0621061456395637	1.7000741993016977	0.026847290550323782	1.0790398405313575	1.687352174192623	0.09054145580037963	1.26487624598685	1.6659275771558302	0.1879039556376046	0.522950526119648	0.3076929944362379	0.20204340580523172	0.34889682992868515	0.10624783864954813	0.17145880913752298	0.3298402967604768	0.252909372732245	0.3526825622383632	0.5181110993519448	0.40523693493861856	0.42068501344698983	0.6836166190697425	0.6372446083190664	0.4289909953402111	0.6405106582948659	0.8745001491501772	0.39130309603536023	0.5878606232247198	0.9871871026540612	0.4063437239722056	0.5634098033013654	1.0147775105460244	0.40920179357800807	0.6159409994114479	1.004172198010158	0.02269739452031707	0.5325022424750855	0.3979299000242942	-0.03164556599867754	0.6832303453731479	0.6131021997340083	-0.014867415587601109	0.6666433131397435	0.8623412688408159	0.02319855442150192	0.6825093724356808	0.9596622563952809	-0.006024448228078344	0.6587451156696656	0.9928116545861071	-0.024012507785268845	0.6491189997153723	0.9717288998611375
